# xmcd
#
# Track frame offsets:
#	150
#	15315
#	27902
#	43235
#	56667
#	72225
#	90865
#	105672
#	119007
#	136357
#	147172
#	163472
#	182352
#	196587
#	212270
#	235427
#	248467
#	259970
#
# Disc length: 3737
#
# Revision: 4
# Processed by: cddbd v1.5.1PL0 Copyright (c) Steve Scherf et al.
# Submitted via: CdAid (MTCDDB.DLL V2003.01.23)
# Normalized: r3:DSETVAR1,TDELIM( - )
#
DISCID=f40e9712
DTITLE=Various Artist - The Seventies Collection Volume One Disc 1
DYEAR=1989
DGENRE=Pop
TTITLE0=Elvis Presley - Suspicious Minds
TTITLE1=Dave Edmunds - I Hear You Knocking
TTITLE2=Blue Mink - Banner Man
TTITLE3=smokey robinson - Tears Of A Clown
TTITLE4=Three Dog night - Joy To The World
TTITLE5=Daddy Cool - Eagle Rock
TTITLE6=Helen Reddy - I am a Woman
TTITLE7=The Jackson Five - ABC
TTITLE8=Guess Who - American Woman
TTITLE9=Bette Middler - Boogie Woogie Bugle Boy
TTITLE10=The Doobie Brothers - Listen To The Music
TTITLE11=Carly Simon - Your'e So Vain
TTITLE12=Derek And The Dominoes - Layla
TTITLE13=Alice Cooper - School's Out
TTITLE14=Rod Stewart - Maggie May
TTITLE15=Dwn - Knock Three Times
TTITLE16=Johnny Nash - I Can See Clearly Now
TTITLE17=Electric Light Orchestra - Roll Over Beethoven
EXTD=YEAR: 1989 ID3G:  13 
EXTT0=
EXTT1=
EXTT2=
EXTT3=
EXTT4=
EXTT5=
EXTT6=
EXTT7=
EXTT8=
EXTT9=
EXTT10=
EXTT11=
EXTT12=
EXTT13=
EXTT14=
EXTT15=
EXTT16=
EXTT17=
PLAYORDER=
